<svg
  width="174"
  height="192"
  viewBox="0 0 174 192"
  fill="none"
  xmlns="http://www.w3.org/2000/svg"
>
  <g clip-path="url(#clip0_9846_1630)">
    <path
      d="M112.911 190.933H95.9028"
      stroke="#00427A"
      stroke-width="2"
      stroke-miterlimit="10"
      stroke-linecap="round"
    />
    <path
      d="M40.7409 26.4677H30.6919"
      stroke="#00427A"
      stroke-width="2"
      stroke-miterlimit="10"
      stroke-linecap="round"
    />
    <path
      d="M18.7019 10.3287H34.5799"
      stroke="#00427A"
      stroke-width="2"
      stroke-miterlimit="10"
      stroke-linecap="round"
    />
    <path
      d="M31.25 83.6357C34.8216 83.6357 37.717 80.7403 37.717 77.1687C37.717 73.5971 34.8216 70.7017 31.25 70.7017C27.6783 70.7017 24.783 73.5971 24.783 77.1687C24.783 80.7403 27.6783 83.6357 31.25 83.6357Z"
      stroke="#00427A"
      stroke-width="2"
      stroke-miterlimit="10"
      stroke-linecap="round"
    />
    <path
      d="M7.67383 82.8727H19.7838C21.8838 87.0857 26.2228 89.9867 31.2498 89.9867C36.2768 89.9867 40.6158 87.0857 42.7158 82.8727H54.8248"
      stroke="#00427A"
      stroke-width="2"
      stroke-miterlimit="10"
      stroke-linecap="round"
    />
    <path
      d="M50.3878 71.4657H42.7158C40.6158 67.2527 36.2768 64.3517 31.2498 64.3517C26.2228 64.3517 21.8838 67.2527 19.7838 71.4657H12.1118"
      stroke="#00427A"
      stroke-width="2"
      stroke-miterlimit="10"
      stroke-linecap="round"
    />
    <path
      d="M48.7249 127.701H0.899902"
      stroke="#00427A"
      stroke-width="2"
      stroke-miterlimit="10"
      stroke-linecap="round"
    />
    <path
      d="M59.9599 103.085C58.2629 92.5297 55.6059 84.8057 53.7649 80.0027C43.8939 54.2517 40.7409 53.5047 40.7409 29.8937V26.4677C42.1289 25.9657 43.0339 25.3087 43.8069 24.4667C44.6009 23.6017 45.0609 22.4807 45.0959 21.3077C45.2029 17.6547 44.3699 13.2167 43.4899 8.59268C42.7369 4.62768 39.2419 1.77368 35.2059 1.77368H27.2919C23.2569 1.77368 19.7619 4.62768 19.0079 8.59268C18.1289 13.2167 17.2959 17.6547 17.4019 21.3077C17.4359 22.4807 17.8969 23.6017 18.6909 24.4667C19.4639 25.3087 20.3689 25.9657 21.7569 26.4677V29.8937C21.7569 53.5037 18.6039 54.2507 8.7329 80.0027C5.8309 87.5757 0.899902 102.413 0.899902 124.162V185.054C0.899902 188.3 3.5319 190.932 6.7779 190.932H51.4009"
      stroke="#00427A"
      stroke-width="2"
      stroke-miterlimit="10"
      stroke-linecap="round"
    />
    <path
      d="M0.899902 176.615H61.5989C61.5989 176.615 61.5989 169.594 61.5989 148.82"
      stroke="#00427A"
      stroke-width="2"
      stroke-miterlimit="10"
      stroke-linecap="round"
    />
    <path
      d="M72.86 152.767C85.816 152.767 92.891 140.983 90.103 126.165C83.25 89.7417 83.25 89.7417 83.25 89.7417H62.47C62.47 89.7417 62.47 89.7417 55.617 126.165C52.829 140.983 59.904 152.767 72.86 152.767Z"
      stroke="#00427A"
      stroke-width="2"
      stroke-miterlimit="10"
      stroke-linecap="round"
    />
    <path
      d="M72.8599 152.767V190.933"
      stroke="#00427A"
      stroke-width="2"
      stroke-miterlimit="10"
      stroke-linecap="round"
    />
    <path
      d="M88.7028 190.933H58.6008"
      stroke="#00427A"
      stroke-width="2"
      stroke-miterlimit="10"
      stroke-linecap="round"
    />
    <path
      d="M57.9238 113.905H87.7958"
      stroke="#00427A"
      stroke-width="2"
      stroke-miterlimit="10"
      stroke-linecap="round"
    />
    <path
      d="M65.8218 122.808C66.6502 122.808 67.3218 122.136 67.3218 121.308C67.3218 120.479 66.6502 119.808 65.8218 119.808C64.9934 119.808 64.3218 120.479 64.3218 121.308C64.3218 122.136 64.9934 122.808 65.8218 122.808Z"
      fill="#00427A"
    />
    <path
      d="M76.1689 135.95C76.9974 135.95 77.6689 135.278 77.6689 134.45C77.6689 133.621 76.9974 132.95 76.1689 132.95C75.3405 132.95 74.6689 133.621 74.6689 134.45C74.6689 135.278 75.3405 135.95 76.1689 135.95Z"
      fill="#00427A"
    />
    <path
      d="M70.5249 141.576C71.3533 141.576 72.0249 140.904 72.0249 140.076C72.0249 139.247 71.3533 138.576 70.5249 138.576C69.6965 138.576 69.0249 139.247 69.0249 140.076C69.0249 140.904 69.6965 141.576 70.5249 141.576Z"
      fill="#00427A"
    />
    <path
      d="M79.782 145.847C80.6104 145.847 81.282 145.175 81.282 144.347C81.282 143.518 80.6104 142.847 79.782 142.847C78.9536 142.847 78.282 143.518 78.282 144.347C78.282 145.175 78.9536 145.847 79.782 145.847Z"
      fill="#00427A"
    />
    <path
      d="M129.563 157.458C129.923 157.458 130.275 157.455 130.618 157.45C136.195 157.362 139.691 151.489 137.134 146.532C135.018 142.43 132.299 138.57 129.563 138.57C126.8 138.57 124.054 142.508 121.929 146.655C119.438 151.516 122.923 157.351 128.384 157.447C128.766 157.454 129.159 157.458 129.563 157.458Z"
      stroke="#EB5C5C"
      stroke-width="2"
      stroke-miterlimit="10"
      stroke-linecap="round"
    />
    <path
      d="M172.717 157.458H112.911V190.933H172.717V157.458Z"
      stroke="#00427A"
      stroke-width="2"
      stroke-miterlimit="10"
      stroke-linecap="round"
    />
    <path
      d="M172.717 168.104C169.804 165.771 165.662 165.771 162.749 168.104C159.836 170.437 155.694 170.437 152.781 168.104C149.868 165.771 145.726 165.771 142.813 168.104C139.9 170.437 135.758 170.437 132.845 168.104C129.932 165.771 125.79 165.771 122.877 168.104C119.964 170.437 115.822 170.437 112.909 168.104"
      stroke="#00427A"
      stroke-width="2"
      stroke-miterlimit="10"
      stroke-linecap="round"
    />
    <path
      d="M163.621 181.383H172.717"
      stroke="#00427A"
      stroke-width="2"
      stroke-miterlimit="10"
      stroke-linecap="round"
    />
    <path
      d="M150.545 181.383H158.221"
      stroke="#EB5C5C"
      stroke-width="2"
      stroke-miterlimit="10"
      stroke-linecap="round"
    />
    <path
      d="M112.911 181.383H145.145"
      stroke="#00427A"
      stroke-width="2"
      stroke-miterlimit="10"
      stroke-linecap="round"
    />
  </g>
  <defs>
    <clipPath id="clip0_9846_1630">
      <rect
        width="173.617"
        height="190.959"
        fill="white"
        transform="translate(0 0.87368)"
      />
    </clipPath>
  </defs>
</svg>
