<svg width="97" height="97" viewBox="0 0 97 97" fill="none" xmlns="http://www.w3.org/2000/svg">
<path fill-rule="evenodd" clip-rule="evenodd" d="M48.7138 9.93615L57.7918 3.07495L63.5538 12.8882L74.5668 10.0222L76.1338 21.2931L87.4048 22.8612L84.5398 33.8742L94.354 39.6362L87.4918 48.7141L94.354 57.7921L84.5398 63.5532L87.4048 74.5662L76.1338 76.1342L74.5668 87.4052L63.5538 84.5402L57.7918 94.3532L48.7138 87.4922L39.6358 94.3532L33.8738 84.5402L22.8608 87.4052L21.2938 76.1342L10.0238 74.5662L12.8878 63.5532L3.07483 57.7921L9.93683 48.7141L3.07483 39.6362L12.8878 33.8742L10.0238 22.8612L21.2938 21.2931L22.8608 10.0222L33.8738 12.8882L39.6358 3.07495L48.7138 9.93615Z" stroke="#00427A" stroke-width="2" stroke-linecap="round"/>
<path fill-rule="evenodd" clip-rule="evenodd" d="M31.2559 51.984C31.2559 51.184 30.7919 50.656 30.1039 50.656H28.2309V53.216H30.1669C30.8229 53.216 31.2559 52.72 31.2559 51.984ZM30.8719 47.455C30.8719 46.67 30.4399 46.142 29.7679 46.142H28.2309V48.703H29.7679C30.4069 48.703 30.8719 48.207 30.8719 47.455ZM32.0879 49.487C33.0169 49.92 33.4969 50.832 33.4969 51.984C33.4969 53.969 32.1519 55.297 30.1359 55.297H25.9739V44.093H29.7829C31.7679 44.093 33.0969 45.422 33.0969 47.422C33.0969 48.239 32.6959 49.055 32.0879 49.487Z" fill="#00427A"/>
<path fill-rule="evenodd" clip-rule="evenodd" d="M39.4628 53.2966C41.0318 53.2966 42.0718 51.8566 42.0718 49.6946C42.0718 47.5506 41.0318 46.1096 39.4628 46.1096C37.8948 46.1096 36.8548 47.5506 36.8548 49.6946C36.8548 51.8566 37.8948 53.2966 39.4628 53.2966ZM39.4628 55.4576C36.5338 55.4576 34.5808 53.1526 34.5808 49.6946C34.5808 46.2376 36.5338 43.9336 39.4628 43.9336C42.3758 43.9336 44.3288 46.2376 44.3288 49.6946C44.3288 53.1526 42.3758 55.4576 39.4628 55.4576Z" fill="#00427A"/>
<path fill-rule="evenodd" clip-rule="evenodd" d="M45.6807 44.0133H46.3847L51.5387 50.3353V44.0933H53.8117V55.3773H53.1397L47.9377 49.1183V55.2973H45.6807V44.0133Z" fill="#00427A"/>
<path fill-rule="evenodd" clip-rule="evenodd" d="M55.621 51.5679V44.0929H57.893V51.5199C57.893 52.6079 58.534 53.3289 59.478 53.3289C60.407 53.3289 61.031 52.6079 61.031 51.5199V44.0929H63.272V51.5679C63.272 53.8889 61.752 55.4419 59.463 55.4419C57.157 55.4419 55.621 53.8889 55.621 51.5679Z" fill="#00427A"/>
<path fill-rule="evenodd" clip-rule="evenodd" d="M68.4062 53.361C69.1902 53.361 70.0392 53.169 70.0392 52.001C70.0392 50.719 68.9342 50.624 68.1342 50.559C65.8132 50.351 64.6612 49.055 64.6612 47.358C64.6612 45.246 66.1172 43.933 68.3102 43.933C70.1192 43.933 71.9752 44.798 71.9602 47.31H69.8462C69.7832 46.398 69.0782 45.998 68.3262 45.998C67.5902 45.998 66.8852 46.446 66.8852 47.31C66.8852 48.302 67.5572 48.543 68.5182 48.671C70.7752 48.911 72.2802 49.92 72.2802 52.001C72.2802 54.641 70.3752 55.458 68.4222 55.458C66.4692 55.458 64.5162 54.353 64.5322 51.904H66.6932C66.7252 52.928 67.5742 53.361 68.4062 53.361Z" fill="#00427A"/>
<path d="M24.498 29.6182C30.145 22.4662 38.894 17.8762 48.714 17.8762" stroke="#EB5C5C" stroke-width="2" stroke-linecap="round"/>
<path d="M52.7021 18.1315C67.8491 20.0875 79.5521 33.0335 79.5521 48.7145C79.5521 65.7455 65.7451 79.5515 48.7141 79.5515C31.6821 79.5515 17.8761 65.7455 17.8761 48.7145C17.8761 42.9165 19.4761 37.4915 22.2591 32.8595" stroke="#00427A" stroke-width="2" stroke-linecap="round"/>
</svg>
