<svg width="215" height="153" viewBox="0 0 215 153" fill="none" xmlns="http://www.w3.org/2000/svg">
<path d="M11.7568 15.8592V38.5982" stroke="#00427A" stroke-width="2" stroke-linecap="round"/>
<path d="M25.9464 15.8592L28.8604 44.3092C30.1719 57.1252 19.5196 59.5622 19.5196 59.5622V138.228C19.5196 140.358 17.7921 142.085 15.6632 142.085C13.5333 142.085 11.8057 140.358 11.8057 138.228V59.5622C11.8057 59.5622 1.15439 57.1252 2.46589 44.3092L5.37999 15.8592" stroke="#00427A" stroke-width="2" stroke-linecap="round"/>
<path d="M19.5693 15.8592V38.5982" stroke="#00427A" stroke-width="2" stroke-linecap="round"/>
<path fill-rule="evenodd" clip-rule="evenodd" d="M213.363 16.9962V138.228C213.363 140.358 211.636 142.085 209.507 142.085C207.377 142.085 205.652 140.358 205.652 138.228V82.9201C205.652 82.9201 195.03 75.2531 196.363 60.4201C198.519 36.4432 205.566 22.4552 209.88 15.9332C210.918 14.3642 213.363 15.1162 213.363 16.9962Z" stroke="#00427A" stroke-width="2" stroke-linecap="round"/>
<path fill-rule="evenodd" clip-rule="evenodd" d="M186.058 76.9059C186.058 36.1482 152.967 3.05818 112.21 3.05818C71.4531 3.05818 38.3633 36.1482 38.3633 76.9059C38.3633 117.663 71.4531 150.753 112.21 150.753C152.967 150.753 186.058 117.663 186.058 76.9059Z" stroke="#00427A" stroke-width="2" stroke-linecap="round"/>
<path d="M139.528 62.3503L154.715 47.5932C156.537 51.1352 158.262 55.0773 159.879 59.464C159.879 59.464 160.32 61.0461 155.791 68.005" stroke="#00427A" stroke-width="2" stroke-linecap="round"/>
<path d="M116.839 70.8874C115.488 69.9201 113.997 69.0412 112.453 68.2482L132.779 23.1082C139.32 26.8852 145.446 32.4772 150.886 40.9302L133.8 60.715" stroke="#00427A" stroke-width="2" stroke-linecap="round"/>
<path fill-rule="evenodd" clip-rule="evenodd" d="M108.375 66.3791C102.183 63.8351 96.3672 62.611 96.3672 62.611L97.7383 14.4792C106.543 15.2632 115.408 16.1402 123.83 19.0522L108.375 66.3791Z" stroke="#00427A" stroke-width="2" stroke-linecap="round"/>
<path d="M124.141 123.517C123.422 124.044 122.659 124.528 121.854 124.963C112.407 130.066 100.613 126.545 95.5099 117.099C90.4074 107.652 93.9279 95.8581 103.374 90.755C103.793 90.529 104.216 90.32 104.644 90.1271" stroke="#00427A" stroke-width="2" stroke-linecap="round"/>
<path d="M104.403 113.054C101.533 108.519 102.883 102.516 107.419 99.6481C108.552 98.9303 109.778 98.4762 111.024 98.2702" stroke="#00427A" stroke-width="2" stroke-linecap="round"/>
<path d="M124.831 71.8664C126.281 68.717 130.04 65.9191 133.889 66.318C139.957 66.9489 145.283 75.9552 141.259 85.4782" stroke="#EB5C5C" stroke-width="2" stroke-linecap="round"/>
<path d="M134.111 73.695L138.861 68.883" stroke="#EB5C5C" stroke-width="2" stroke-linecap="round"/>
<path d="M136.012 87.7751L138.521 90.0964" stroke="#EB5C5C" stroke-width="2" stroke-linecap="round"/>
<path d="M113.876 77.0392C111.934 78.03 110.264 79.6432 109.528 81.7301C107.499 87.4831 113.356 96.153 123.686 96.5983L123.236 92.2282" stroke="#EB5C5C" stroke-width="2" stroke-linecap="round"/>
<path d="M120.963 83.2453C120.885 87.6442 125.88 89.9972 130 87.3913C134.12 84.7843 134.071 79.3029 130.064 77.488C128.236 76.6623 122.752 75.4142 121.49 73.422L126.325 81.0622" stroke="#EB5C5C" stroke-width="2" stroke-linecap="round"/>
<path d="M138.311 97.9821C142.794 98.549 146.999 101.042 149.605 105.158C154.236 112.479 152.055 122.169 144.736 126.799C137.414 131.43 127.727 129.251 123.095 121.929C119.354 116.016 120.058 108.557 124.325 103.466" stroke="#00427A" stroke-width="2" stroke-linecap="round"/>
<path d="M130.302 103.984L132.548 107.534" stroke="#00427A" stroke-width="2" stroke-linecap="round"/>
<path d="M139.97 119.267L142.217 122.818" stroke="#00427A" stroke-width="2" stroke-linecap="round"/>
<path d="M125.388 110.954L129.487 111.876" stroke="#00427A" stroke-width="2" stroke-linecap="round"/>
<path d="M143.032 114.924L147.131 115.846" stroke="#00427A" stroke-width="2" stroke-linecap="round"/>
<path d="M126.842 119.358L130.393 117.111" stroke="#00427A" stroke-width="2" stroke-linecap="round"/>
<path d="M142.125 109.689L145.676 107.443" stroke="#00427A" stroke-width="2" stroke-linecap="round"/>
<path d="M133.814 124.272L134.736 120.172" stroke="#00427A" stroke-width="2" stroke-linecap="round"/>
<path d="M137.783 106.628L138.705 102.528" stroke="#00427A" stroke-width="2" stroke-linecap="round"/>
<path d="M146.232 88.2253C153.344 84.675 162.131 87.0202 166.473 93.883C171.105 101.204 168.924 110.892 161.604 115.523C158.068 117.76 156.953 118.656 151.175 118.656" stroke="#00427A" stroke-width="2" stroke-linecap="round"/>
<path d="M147.169 92.7082L149.415 96.259" stroke="#00427A" stroke-width="2" stroke-linecap="round"/>
<path d="M156.838 107.991L159.085 111.542" stroke="#00427A" stroke-width="2" stroke-linecap="round"/>
<path d="M159.9 103.649L163.998 104.571" stroke="#00427A" stroke-width="2" stroke-linecap="round"/>
<path d="M158.993 98.4133L162.544 96.1672" stroke="#00427A" stroke-width="2" stroke-linecap="round"/>
<path d="M154.652 95.3532L155.573 91.2531" stroke="#00427A" stroke-width="2" stroke-linecap="round"/>
<path d="M147.859 75.5192C149.087 72.945 151.033 70.6759 153.621 69.0392C160.942 64.4069 170.63 66.5861 175.261 73.9084C179.894 81.2282 177.712 90.9162 170.393 95.547C169.596 96.0519 168.772 96.4753 167.928 96.82" stroke="#00427A" stroke-width="2" stroke-linecap="round"/>
<path d="M155.958 72.7331L158.205 76.2843" stroke="#00427A" stroke-width="2" stroke-linecap="round"/>
<path d="M165.627 88.0163L167.873 91.5671" stroke="#00427A" stroke-width="2" stroke-linecap="round"/>
<path d="M151.044 79.7033L155.144 80.6252" stroke="#00427A" stroke-width="2" stroke-linecap="round"/>
<path d="M168.689 83.673L172.787 84.5949" stroke="#00427A" stroke-width="2" stroke-linecap="round"/>
<path d="M167.782 78.4382L171.332 76.1921" stroke="#00427A" stroke-width="2" stroke-linecap="round"/>
<path d="M163.44 75.3771L164.361 71.277" stroke="#00427A" stroke-width="2" stroke-linecap="round"/>
<path fill-rule="evenodd" clip-rule="evenodd" d="M120.725 68.4294C119.916 69.8512 118.471 70.7663 116.839 70.8874C114.225 71.0802 110.235 71.9552 107.147 75.1989C97.9063 84.901 107.012 96.3522 114.36 100.171C121.706 103.991 128.494 102.952 136.601 97.8254C144.707 92.696 148.552 87.006 148.248 78.7321C147.945 70.4562 141.496 57.3239 128.773 61.5163C124.52 62.9181 122.02 66.1501 120.725 68.4294Z" stroke="#EB5C5C" stroke-width="2" stroke-linecap="round"/>
<path d="M97.004 96.2673L93.8956 93.526C92.3262 92.1432 90.0948 91.8053 88.1876 92.6603C85.8917 93.6872 84.0479 95.797 85.1505 98.6403C86.252 101.483 88.5635 103.371 86.9942 106.038C85.6993 108.241 83.2325 108.275 81.6094 107.765L80.1553 107.308C77.17 106.37 73.8018 108.01 72.753 110.746C71.0001 115.319 73.502 120.158 81.0128 120.652C83.1065 120.855 84.9464 121.802 83.9102 124.93C82.8741 128.058 84.9688 130.487 87.9503 129.904C91.1661 129.275 97.8575 123.976 99.2599 121.988" stroke="#00427A" stroke-width="2" stroke-linecap="round"/>
<path d="M76.1513 126.622C76.1513 126.622 71.9795 127.309 68.3076 123.489C66.1045 121.198 66.6347 118.385 67.4121 116.499C67.8906 115.339 67.3027 114.019 66.1025 113.655L66.0752 113.647C62.3886 112.531 59.9843 108.991 60.3047 105.152C60.5586 102.131 62.4638 99.4982 65.2558 98.3161L66.9277 97.6071C69.167 96.6593 70.4814 94.3151 70.1201 91.9103L69.1533 85.4572C68.6494 82.0949 70.3847 78.7922 73.4433 77.3044C76.166 75.9762 79.4111 76.3503 81.7617 78.259L84.1152 80.1701C86.1631 81.8322 89.2002 81.3473 90.6259 79.1271L93.0156 75.4084C94.8213 72.5983 98.3437 71.4269 101.475 72.6003C101.915 72.7653 102.334 72.9723 102.727 73.2131" stroke="#00427A" stroke-width="2" stroke-linecap="round"/>
<path d="M53.5175 102.98C52.042 98.9933 53.2881 95.089 56.8838 92.4489C59.5615 90.4831 60.8447 87.1281 60.4209 83.8342L59.7324 78.4772C59.3017 75.1271 60.5996 71.7912 63.1767 69.611C66.2363 67.0251 70.5478 66.526 74.1172 68.3439L78.7334 70.6979L79.582 69.8464C83.8535 65.569 90.3252 64.3771 95.8398 66.8542" stroke="#00427A" stroke-width="2" stroke-linecap="round"/>
<path fill-rule="evenodd" clip-rule="evenodd" d="M90.0342 57.8263L83.2226 26.1732C83.2226 26.1732 74.3125 25.5102 68.539 33.0562C62.7656 40.6032 64.0254 50.6682 72.7549 56.6149C79.6601 61.319 88.4345 58.9772 90.0342 57.8263Z" stroke="#00427A" stroke-width="2" stroke-linecap="round"/>
<path d="M103.733 28.1122L114.921 24.8212" stroke="#00427A" stroke-width="2" stroke-linecap="round"/>
<path d="M102.919 39.5392L111.833 36.9172" stroke="#00427A" stroke-width="2" stroke-linecap="round"/>
<path d="M102.174 50.4832L108.81 48.5322" stroke="#00427A" stroke-width="2" stroke-linecap="round"/>
<path d="M131.549 39.7962L142.208 40.1052" stroke="#00427A" stroke-width="2" stroke-linecap="round"/>
<path d="M127.488 48.9952L135.66 49.2292" stroke="#00427A" stroke-width="2" stroke-linecap="round"/>
<path d="M123.259 57.7179L129.25 57.8913" stroke="#00427A" stroke-width="2" stroke-linecap="round"/>
<path d="M148.857 61.506L153.205 63.0343" stroke="#00427A" stroke-width="2" stroke-linecap="round"/>
<path d="M123.829 19.8842C136.57 22.4662 147.798 29.2112 156.036 38.6362" stroke="#00427A" stroke-width="2" stroke-linecap="round"/>
<path d="M83.2754 26.4182C87.624 23.9202 92.3271 21.9682 97.289 20.6542" stroke="#00427A" stroke-width="2" stroke-linecap="round"/>
<path d="M55.2314 88.735C54.4424 84.9172 54.0283 80.9601 54.0283 76.905C54.0283 64.1989 58.1015 52.4432 65.0127 42.8752" stroke="#00427A" stroke-width="2" stroke-linecap="round"/>
<path d="M127.908 134.216C123.213 135.439 118.288 136.089 113.211 136.089C104.28 136.089 95.8193 134.076 88.2568 130.482" stroke="#00427A" stroke-width="2" stroke-linecap="round"/>
<path d="M166.342 55.5363C167.968 59.651 169.138 63.9963 169.791 68.509" stroke="#00427A" stroke-width="2" stroke-linecap="round"/>
</svg>
